<?xml version="1.0" encoding="UTF-8" standalone="no"?>
<svg
   xmlns:dc="http://purl.org/dc/elements/1.1/"
   xmlns:cc="http://creativecommons.org/ns#"
   xmlns:rdf="http://www.w3.org/1999/02/22-rdf-syntax-ns#"
   xmlns:svg="http://www.w3.org/2000/svg"
   xmlns="http://www.w3.org/2000/svg"
   xml:space="preserve"
   style="enable-background:new 0 0 60 60;"
   viewBox="0 0 60 60"
   y="0px"
   x="0px"
   id="Capa_1"
   version="1.1"><metadata
   id="metadata45"><rdf:RDF><cc:Work
       rdf:about=""><dc:format>image/svg+xml</dc:format><dc:type
         rdf:resource="http://purl.org/dc/dcmitype/StillImage" /><dc:title></dc:title></cc:Work></rdf:RDF></metadata><defs
   id="defs43">
	
	
	
</defs>
<path
   style="fill:#cb4f24;fill-opacity:1"
   d="m 46.5,33 c -3.764,0 -7.317,1.581 -9.75,4.338 -0.365,0.415 -0.326,1.047 0.088,1.412 0.415,0.365 1.045,0.327 1.412,-0.088 C 40.303,36.335 43.311,35 46.5,35 c 6.065,0 11,4.935 11,11 0,6.065 -4.935,11 -11,11 -4.992,0 -9.407,-3.367 -10.741,-8 H 40.5 v -2 h -8 v 8 h 2 v -3.663 c 2.093,4.53 6.781,7.663 12,7.663 7.168,0 13,-5.832 13,-13 0,-7.168 -5.832,-13 -13,-13 z"
   id="path2" /><path
   style="fill:#cb4f24;fill-opacity:1"
   d="m 17.5,22 h 20 V 12 h -20 z m 3,-8 h 14 v 2 h -14 z m 0,4 h 14 v 2 h -14 z"
   id="path4" /><path
   style="fill:#00384e;fill-opacity:1"
   d="m 28.5,46 c 0,-8.843 7.194,-16.037 16.037,-16.037 0.666,0 1.318,0.053 1.963,0.133 V 0 h -35 -1 -9 -1 v 60 h 1 9 1 25.237 C 31.829,57.255 28.5,52.012 28.5,46 Z M 3.5,58 V 2 h 5 v 56 z m 12,-48 h 24 v 14 h -24 z"
   id="path6" />
<g
   id="g10">
</g>
<g
   id="g12">
</g>
<g
   id="g14">
</g>
<g
   id="g16">
</g>
<g
   id="g18">
</g>
<g
   id="g20">
</g>
<g
   id="g22">
</g>
<g
   id="g24">
</g>
<g
   id="g26">
</g>
<g
   id="g28">
</g>
<g
   id="g30">
</g>
<g
   id="g32">
</g>
<g
   id="g34">
</g>
<g
   id="g36">
</g>
<g
   id="g38">
</g>
</svg>